<svg width="132" height="142" viewBox="0 0 132 142" fill="none" xmlns="http://www.w3.org/2000/svg">
<path d="M4.88848 53.8507C2.72808 62.0293 5.05358 69.9664 6.11441 78.1878C6.11441 83.7829 4.89322 87.0585 5.61496 92.672C6.66229 100.818 8.21193 107.966 13.47 114.557C18.0035 120.24 23.6699 125.764 30.2245 129.041C34.5344 131.196 39.1268 132.416 43.619 134.081C48.2419 135.795 53.0772 137.268 58.0351 137.419C69.0872 137.754 79.41 137.115 90.0229 133.764C98.4519 131.102 108.188 126.904 114.428 120.664C121.689 113.403 125.756 105.28 126.756 95.1693C127.646 86.1644 127.354 76.9154 125.53 68.0625C124.299 62.0921 121.897 56.8398 119.536 51.2399C117.256 45.8319 115.021 40.5609 111.863 35.5979C109.497 31.8803 106.672 28.409 103.554 25.2909C102.262 23.999 101.292 23.2676 99.6034 22.9299C97.2344 22.4561 94.9982 21.5768 92.611 21.1591C86.8604 20.1527 80.845 19.7129 75.0166 19.3429C65.0215 18.7083 53.425 18.6308 43.8687 22.0218C36.2558 24.7231 29.3659 27.7956 22.5964 32.2606C14.4485 37.6348 7.45783 44.1239 4.88848 53.8507Z" fill="white" stroke="black" stroke-width="8" stroke-linecap="round"/>
<path d="M4.88848 38.8507C2.72808 47.0293 5.05358 54.9664 6.11441 63.1878C6.11441 68.7829 4.89322 72.0585 5.61496 77.672C6.66229 85.8179 8.21193 92.9661 13.47 99.5572C18.0035 105.24 23.6699 110.764 30.2245 114.041C34.5344 116.196 39.1268 117.416 43.619 119.081C48.2419 120.795 53.0772 122.268 58.0351 122.419C69.0872 122.754 79.41 122.115 90.0229 118.764C98.4519 116.102 108.188 111.904 114.428 105.664C121.689 98.4029 125.756 90.2801 126.756 80.1693C127.646 71.1644 127.354 61.9154 125.53 53.0625C124.299 47.0921 121.897 41.8398 119.536 36.2399C117.256 30.8319 115.021 25.5609 111.863 20.5979C109.497 16.8803 106.672 13.409 103.554 10.2909C102.262 8.99897 101.292 8.26757 99.6034 7.92987C97.2344 7.45607 94.9982 6.57683 92.611 6.15907C86.8604 5.15271 80.845 4.71293 75.0166 4.34287C65.0215 3.70827 53.425 3.63081 43.8687 7.02177C36.2558 9.72311 29.3659 12.7956 22.5964 17.2606C14.4485 22.6348 7.45783 29.1239 4.88848 38.8507Z" fill="#0D00A4" stroke="black" stroke-width="8" stroke-linecap="round"/>
<path d="M36.5703 63.1538L45.678 59.1692V48.923L55.9242 54.6153L65.0318 50.6307L45.678 39.2461L36.5703 43.7999V63.1538Z" fill="#D51E25"/>
<path d="M95.2 43.7991L87.2308 39.8145L76.9846 45.5068L83.8154 48.9221L36 71.1221V82.5068L43.4 85.9221L54.2154 81.3683L47.3846 77.3837L95.2 55.7529V43.7991Z" fill="#D51E25"/>
<path d="M95.1998 81.3697V63.1543L86.6614 66.5697V76.8158L75.846 71.6928L66.7383 76.8158L86.6614 86.4928L95.1998 81.3697Z" fill="#D51E25"/>
<path d="M66.1711 87.0621L61.048 84.7852L51.3711 89.339L66.1711 97.3082L80.9711 89.339L72.4326 84.7852L66.1711 87.0621Z" fill="#D51E25"/>
<path d="M66.1711 29L51.3711 36.4L60.4788 42.0923L66.1711 39.2462L70.7249 42.0923L80.9711 37.5385L66.1711 29Z" fill="#D51E25"/>
</svg>
