<svg width="132" height="142" viewBox="0 0 132 142" fill="none" xmlns="http://www.w3.org/2000/svg">
<path d="M4.88848 53.8507C2.72808 62.0293 5.05358 69.9664 6.11441 78.1878C6.11441 83.7829 4.89322 87.0585 5.61496 92.672C6.66229 100.818 8.21193 107.966 13.47 114.557C18.0035 120.24 23.6699 125.764 30.2245 129.041C34.5344 131.196 39.1268 132.416 43.619 134.081C48.2419 135.795 53.0772 137.268 58.0351 137.419C69.0872 137.754 79.41 137.115 90.0229 133.764C98.4519 131.102 108.188 126.904 114.428 120.664C121.689 113.403 125.756 105.28 126.756 95.1693C127.646 86.1644 127.354 76.9154 125.53 68.0625C124.299 62.0921 121.897 56.8398 119.536 51.2399C117.256 45.8319 115.021 40.5609 111.863 35.5979C109.497 31.8803 106.672 28.409 103.554 25.2909C102.262 23.999 101.292 23.2676 99.6034 22.9299C97.2344 22.4561 94.9982 21.5768 92.611 21.1591C86.8604 20.1527 80.845 19.7129 75.0166 19.3429C65.0215 18.7083 53.425 18.6308 43.8687 22.0218C36.2558 24.7231 29.3659 27.7956 22.5964 32.2606C14.4485 37.6348 7.45783 44.1239 4.88848 53.8507Z" fill="white" stroke="black" stroke-width="8" stroke-linecap="round"/>
<path d="M4.88848 38.8507C2.72808 47.0293 5.05358 54.9664 6.11441 63.1878C6.11441 68.7829 4.89322 72.0585 5.61496 77.672C6.66229 85.8179 8.21193 92.9661 13.47 99.5572C18.0035 105.24 23.6699 110.764 30.2245 114.041C34.5344 116.196 39.1268 117.416 43.619 119.081C48.2419 120.795 53.0772 122.268 58.0351 122.419C69.0872 122.754 79.41 122.115 90.0229 118.764C98.4519 116.102 108.188 111.904 114.428 105.664C121.689 98.4029 125.756 90.2801 126.756 80.1693C127.646 71.1644 127.354 61.9154 125.53 53.0625C124.299 47.0921 121.897 41.8398 119.536 36.2399C117.256 30.8319 115.021 25.5609 111.863 20.5979C109.497 16.8803 106.672 13.409 103.554 10.2909C102.262 8.99897 101.292 8.26757 99.6034 7.92987C97.2344 7.45607 94.9982 6.57683 92.611 6.15907C86.8604 5.15271 80.845 4.71293 75.0166 4.34287C65.0215 3.70827 53.425 3.63081 43.8687 7.02177C36.2558 9.72311 29.3659 12.7956 22.5964 17.2606C14.4485 22.6348 7.45783 29.1239 4.88848 38.8507Z" fill="#0D00A4" stroke="black" stroke-width="8" stroke-linecap="round"/>
<path d="M92.8761 38.1235C92.6503 37.4581 92.3808 37.283 91.96 37.1167C91.0395 36.7752 89.4802 37.2918 89.4802 37.2918C89.4802 37.2918 34.2807 57.1476 31.1272 59.345C30.4482 59.8178 30.2207 60.0979 30.1079 60.4219C29.5627 61.9802 31.2611 62.6718 31.2611 62.6718L45.4886 67.3119C45.4886 67.3119 46.0189 67.3906 46.2079 67.2681C49.4445 65.2195 78.7719 46.6944 80.4633 46.0728C80.7302 45.994 80.9279 46.0816 80.8754 46.2654C80.1982 48.6467 54.726 71.2953 54.726 71.2953C54.726 71.2953 54.6289 71.4178 54.5677 71.5579L54.5344 71.5404L53.207 85.6618C53.207 85.6618 52.6505 89.9867 56.9739 85.6618C60.0242 82.6064 62.9755 80.05 64.4525 78.8156C69.3447 82.1949 74.6096 85.9332 76.8819 87.8855C78.0229 88.8661 78.9776 89.0236 79.7633 88.9974C81.9202 88.9186 82.5222 86.5461 82.5222 86.5461C82.5222 86.5461 92.5812 46.0378 92.9172 40.6098C92.9505 40.0758 92.996 39.7431 92.9995 39.3754C93.0056 38.8676 92.9583 38.3599 92.8761 38.1235Z" fill="#D51E25"/>
</svg>
